<?xml version="1.0" standalone="no"?>
<!DOCTYPE svg PUBLIC "-//W3C//DTD SVG 20010904//EN"
 "http://www.w3.org/TR/2001/REC-SVG-20010904/DTD/svg10.dtd">
<svg version="1.0" xmlns="http://www.w3.org/2000/svg"
 width="180.000000pt" height="180.000000pt" viewBox="0 0 180.000000 180.000000"
 preserveAspectRatio="xMidYMid meet">
<metadata>
Created by potrace 1.14, written by Peter Selinger 2001-2017
</metadata>
<g transform="translate(0.000000,180.000000) scale(0.100000,-0.100000)"
fill="#000000" stroke="none">
<path d="M729 1692 c-51 -2 -71 -7 -84 -22 -23 -26 -61 -26 -75 0 -7 13 -21
20 -40 20 -20 0 -31 -6 -35 -20 -3 -11 -13 -21 -21 -21 -42 -4 -51 -14 -49
-53 1 -30 -1 -34 -21 -31 -36 4 -46 -9 -52 -64 l-5 -51 41 0 c33 0 44 -5 61
-29 33 -47 38 -69 46 -221 4 -80 9 -165 10 -190 10 -163 17 -273 21 -323 4
-62 -8 -97 -45 -131 -28 -25 -35 -16 -23 27 l10 36 -41 -2 c-35 -2 -45 -7 -65
-37 -37 -56 -56 -48 -32 14 6 17 6 26 0 26 -6 0 -10 -4 -10 -9 0 -5 -7 -11
-14 -14 -10 -4 -13 -1 -9 9 3 8 -1 14 -11 14 -9 0 -16 -3 -17 -7 0 -5 -2 -20
-4 -36 -3 -24 -2 -25 11 -12 21 21 25 19 18 -9 -9 -37 3 -50 31 -32 20 13 25
14 35 0 11 -13 16 -13 37 2 23 14 26 14 37 -1 11 -15 16 -13 48 19 43 43 48
44 48 10 0 -21 -3 -24 -21 -19 -15 5 -20 3 -17 -6 3 -8 13 -14 24 -14 15 0 19
-8 20 -35 3 -71 16 -266 19 -300 6 -48 31 -69 85 -70 40 -1 371 -2 509 -1 91
0 94 7 106 226 10 167 9 165 23 198 21 50 24 87 7 87 -13 0 -14 12 -10 76 3
41 7 119 10 172 3 53 7 126 10 162 2 36 7 117 10 180 8 141 13 168 36 199 10
13 17 26 15 30 -3 4 12 8 32 9 66 4 70 7 62 57 -4 25 -9 47 -12 50 -3 4 -35
11 -59 14 -4 1 -6 18 -5 39 1 34 -1 37 -28 37 -20 1 -32 7 -39 23 -13 29 -62
30 -77 2 -14 -25 -48 -26 -75 0 -19 17 -38 20 -190 22 -94 2 -200 2 -236 0z
m-299 -1092 c0 -16 -23 -60 -31 -60 -16 0 -19 19 -8 44 12 25 39 36 39 16z"/>
<path d="M193 687 c-33 -10 -70 -64 -53 -81 15 -15 33 4 19 20 -9 11 -8 18 2
30 10 12 24 15 61 10 38 -5 48 -4 48 7 0 19 -37 25 -77 14z"/>
<path d="M1466 655 c-6 -29 -11 -35 -31 -35 -18 0 -32 -11 -51 -40 -39 -59
-55 -52 -29 12 10 25 -22 35 -43 14 -11 -10 -12 -16 -4 -16 8 0 10 -8 6 -25
-3 -14 -4 -32 0 -40 5 -14 9 -14 33 -1 24 12 30 12 41 0 11 -12 16 -12 36 1
21 14 24 14 30 0 5 -15 8 -15 28 -1 17 12 25 13 36 4 24 -21 39 -17 82 19 40
35 41 35 35 10 -10 -37 1 -49 30 -35 27 12 35 31 10 22 -17 -7 -18 -1 -6 44
11 36 5 41 -15 15 -13 -17 -13 -17 -14 0 0 31 -30 19 -30 -13 0 -29 -22 -50
-53 -50 -16 0 -21 56 -6 66 17 10 23 -4 9 -21 -14 -16 -3 -20 19 -6 19 12 6
41 -17 41 -20 0 -52 -29 -52 -47 0 -15 -27 -36 -33 -26 -3 4 3 38 12 76 16 63
16 67 0 67 -11 0 -19 -11 -23 -35z m-16 -63 c0 -25 -25 -57 -38 -48 -7 4 -7
15 1 36 12 33 37 41 37 12z"/>
<path d="M214 642 c-7 -4 -14 -27 -18 -52 -8 -57 -34 -80 -57 -51 -9 11 -19
17 -23 14 -11 -11 -6 -22 13 -32 29 -16 77 5 91 38 14 35 10 94 -6 83z"/>
</g>
</svg>
